<svg width="704" height="814" viewBox="0 0 704 814" fill="none" xmlns="http://www.w3.org/2000/svg">
<g clip-path="url(#clip0_422_67127)">
<path d="M0 30.0247C0 18.9699 8.96164 10.0083 20.0164 10.0083H703.91V814H10.0082C4.4808 814 0 809.519 0 803.992V30.0247Z" fill="#F7931D"/>
<path d="M124.82 323.393C124.82 205.759 220.181 110.398 337.815 110.398H365.505C483.139 110.398 578.5 205.759 578.5 323.393V753.643H124.82V323.393Z" fill="#323232"/>
<rect x="280.307" y="410.721" width="145.292" height="272.914" rx="29.3441" fill="white" stroke="#323232" stroke-width="8.5198" stroke-linecap="round"/>
<path d="M284.346 586.727V499.493H430.469C419.463 544.227 353.84 589.143 284.346 586.727Z" fill="#7E7E7E" fill-opacity="0.45"/>
<path d="M261.137 409.656C261.137 434.553 238.666 455.45 210.018 455.45C181.371 455.45 158.9 434.553 158.9 409.656C158.9 384.76 181.371 363.862 210.018 363.862C238.666 363.862 261.137 384.76 261.137 409.656Z" fill="white" stroke="#323232" stroke-width="8.5198"/>
<path d="M446.442 409.656C446.442 434.553 468.913 455.45 497.561 455.45C526.208 455.45 548.68 434.553 548.68 409.656C548.68 384.76 526.208 363.862 497.561 363.862C468.913 363.862 446.442 384.76 446.442 409.656Z" fill="white" stroke="#323232" stroke-width="8.5198"/>
<path d="M495.431 387.848C495.431 435.668 482.741 472.135 459.191 496.637C435.666 521.112 400.717 534.258 354.918 534.258C309.116 534.258 273.58 521.109 249.483 496.602C225.376 472.085 212.148 435.621 212.148 387.848C212.148 340.014 225.421 290.121 250.016 252.315C274.578 214.558 310.145 189.206 354.918 189.206C399.674 189.206 434.669 214.539 458.668 252.278C482.705 290.077 495.431 339.979 495.431 387.848Z" fill="white" stroke="#323232" stroke-width="8.5198" stroke-linecap="round"/>
<path d="M354.855 385.162C350.657 399.67 348.465 407.251 348.465 422.345C354.087 425.035 359.463 425.707 368.699 425.631" stroke="#323232" stroke-width="8.5198" stroke-linecap="round" stroke-linejoin="round"/>
<path d="M279.811 409.071C284.202 409.071 288.096 406.695 290.856 403.016C293.616 399.336 295.291 394.302 295.291 388.786C295.291 383.271 293.616 378.236 290.856 374.557C288.096 370.877 284.202 368.501 279.811 368.501C275.42 368.501 271.526 370.877 268.767 374.557C266.007 378.236 264.332 383.271 264.332 388.786C264.332 394.302 266.007 399.336 268.767 403.016C271.526 406.695 275.42 409.071 279.811 409.071Z" fill="#323232" stroke="#323232" stroke-width="2.12995" stroke-linecap="round"/>
<circle cx="285.879" cy="384.068" r="5.32487" fill="white" stroke="#323232" stroke-width="2.12995"/>
<path d="M433.168 409.071C437.559 409.071 441.453 406.695 444.213 403.016C446.972 399.336 448.648 394.302 448.648 388.786C448.648 383.271 446.972 378.236 444.213 374.557C441.453 370.877 437.559 368.501 433.168 368.501C428.777 368.501 424.883 370.877 422.123 374.557C419.363 378.236 417.688 383.271 417.688 388.786C417.688 394.302 419.363 399.336 422.123 403.016C424.883 406.695 428.777 409.071 433.168 409.071Z" fill="#323232" stroke="#323232" stroke-width="2.12995" stroke-linecap="round"/>
<circle cx="439.235" cy="384.068" r="4.2599" fill="white"/>
<path d="M337.814 458.645C344.204 466.455 360.818 477.389 376.154 458.645" stroke="#323232" stroke-width="8.5198" stroke-linecap="round" stroke-linejoin="round"/>
<g filter="url(#filter0_f_422_67127)">
<ellipse cx="270.722" cy="447.995" rx="20.2345" ry="11.7147" fill="#FC9D80"/>
</g>
<g filter="url(#filter1_f_422_67127)">
<ellipse cx="438.987" cy="447.995" rx="20.2345" ry="11.7147" fill="#FC9D80"/>
</g>
<path d="M420.537 267.328C360.899 352.526 306.154 359.096 205.758 368.122C224.391 237.757 215.343 191.336 368.699 184.946C491.171 192.401 488.229 258.67 491.171 368.122C454.616 348.267 446.829 335.066 420.537 267.328Z" fill="#323232"/>
<path d="M281.662 575.932C316.049 635.516 399.315 630.851 425.28 576.476C425.987 574.996 427.581 574.561 428.601 575.023C486.021 601.047 523.726 628.727 549.475 664.868C575.253 701.049 589.367 746.149 598.76 807.649C598.956 808.932 597.95 810.086 596.684 810.086H106.654C105.391 810.086 104.384 808.928 104.586 807.645C114.732 743.069 131.418 697.434 158.752 661.738C186.088 626.04 224.389 599.866 278.561 574.795C279.534 574.344 280.952 574.702 281.662 575.932Z" fill="white" stroke="#323232" stroke-width="8.5198" stroke-linecap="round" stroke-linejoin="round"/>
<path d="M352.406 691.518L355.993 696.754L359.48 691.451L433.081 579.493C468.944 596.091 487.15 608.339 518.861 635.681V801.998H186.589V635.683C218.311 608.408 239.42 596.135 275.626 579.461L352.406 691.518Z" fill="#323232" stroke="#323232" stroke-width="8.5198"/>
<path d="M330.595 394.982C350.354 387.089 361.096 386.893 379.584 394.982" stroke="#323232" stroke-width="8.5198" stroke-linecap="round"/>
<path d="M231.319 384.734L214.513 368.41" stroke="#323232" stroke-width="8.5198"/>
<path d="M474.239 375.447L492.471 367.345" stroke="#323232" stroke-width="8.5198"/>
<path fill-rule="evenodd" clip-rule="evenodd" d="M284.074 346.971L291.713 354.61L228.457 417.867L225.472 414.882C225.128 413.514 224.835 412.122 224.594 410.708C223.883 406.525 223.672 402.372 223.918 398.308L275.317 346.909C278.272 346.697 281.198 346.723 284.074 346.971Z" fill="white" fill-opacity="0.15"/>
<path d="M329.299 392.895C333.959 420.29 315.293 446.394 287.498 451.123C259.702 455.852 233.454 437.389 228.793 409.994C224.133 382.599 242.799 356.494 270.594 351.765C298.39 347.037 324.638 365.5 329.299 392.895Z" fill="url(#paint0_linear_422_67127)" fill-opacity="0.3" stroke="#323232" stroke-width="8.5198"/>
<path fill-rule="evenodd" clip-rule="evenodd" d="M486.67 403.503C486.821 399.784 486.588 395.994 485.939 392.181C485.872 391.787 485.801 391.396 485.726 391.007L480.398 385.678L414.025 452.05L415.945 453.97C421.728 455.633 427.856 456.373 434.126 456.047L486.67 403.503Z" fill="white" fill-opacity="0.15"/>
<path d="M481.739 392.895C486.4 420.29 467.734 446.394 439.938 451.123C412.142 455.852 385.894 437.389 381.234 409.994C376.573 382.599 395.239 356.494 423.035 351.765C450.831 347.037 477.078 365.5 481.739 392.895Z" fill="url(#paint1_linear_422_67127)" fill-opacity="0.3" stroke="#323232" stroke-width="8.5198"/>
</g>
<defs>
<filter id="filter0_f_422_67127" x="224.928" y="410.721" width="91.5875" height="74.5485" filterUnits="userSpaceOnUse" color-interpolation-filters="sRGB">
<feFlood flood-opacity="0" result="BackgroundImageFix"/>
<feBlend mode="normal" in="SourceGraphic" in2="BackgroundImageFix" result="shape"/>
<feGaussianBlur stdDeviation="12.7797" result="effect1_foregroundBlur_422_67127"/>
</filter>
<filter id="filter1_f_422_67127" x="393.194" y="410.721" width="91.5875" height="74.5485" filterUnits="userSpaceOnUse" color-interpolation-filters="sRGB">
<feFlood flood-opacity="0" result="BackgroundImageFix"/>
<feBlend mode="normal" in="SourceGraphic" in2="BackgroundImageFix" result="shape"/>
<feGaussianBlur stdDeviation="12.7797" result="effect1_foregroundBlur_422_67127"/>
</filter>
<linearGradient id="paint0_linear_422_67127" x1="269.88" y1="347.566" x2="321.009" y2="452.543" gradientUnits="userSpaceOnUse">
<stop stop-color="white"/>
<stop offset="1" stop-color="#C0C8FE" stop-opacity="0"/>
</linearGradient>
<linearGradient id="paint1_linear_422_67127" x1="422.32" y1="347.566" x2="473.45" y2="452.543" gradientUnits="userSpaceOnUse">
<stop stop-color="white"/>
<stop offset="1" stop-color="#C0C8FE" stop-opacity="0"/>
</linearGradient>
<clipPath id="clip0_422_67127">
<rect width="703.91" height="814" fill="white"/>
</clipPath>
</defs>
</svg>
